# xmcd
#
# Track frame offsets: 
#        150
#        3526
#        26397
#        62317
#        82833
#        117414
#        128643
#        160659
#        185660
#
# Disc length: 3054 seconds
#
# Revision: 1
# Processed by: cddbd v1.5.2PL0 Copyright (c) Steve Scherf et al.
# Submitted via: ExactAudioCopy v1.0b2
#
DISCID=610bec09
DTITLE=Kenos - (2004) Intersection
DYEAR=2004
DGENRE=Death Metal
TTITLE0=The age of terror
TTITLE1=Chemical insomnia
TTITLE2=Blood of saints
TTITLE3=Clouded by chimeras
TTITLE4=Usteria's ruin
TTITLE5=Eyes of hurricane
TTITLE6=Intersection
TTITLE7=Rigor mortis
TTITLE8=Dracona
EXTD=
EXTT0=
EXTT1=
EXTT2=
EXTT3=
EXTT4=
EXTT5=
EXTT6=
EXTT7=
EXTT8=
PLAYORDER=
